<?xml version="1.0" standalone="no"?><!DOCTYPE svg PUBLIC "-//W3C//DTD SVG 1.1//EN" "http://www.w3.org/Graphics/SVG/1.1/DTD/svg11.dtd"><svg t="1760926952575" class="icon" viewBox="0 0 1024 1024" version="1.1" xmlns="http://www.w3.org/2000/svg" p-id="2138" xmlns:xlink="http://www.w3.org/1999/xlink" width="200" height="200"><path d="M1009.952504 512.001419c0 274.959153-222.91531 497.894328-497.894328 497.894328-274.970504 0-497.894328-222.935175-497.894327-497.894328 0-274.984694 222.926661-497.894328 497.894327-497.894328 274.979018 0 497.894328 222.909634 497.894328 497.894328z" fill="#FFFFFF" p-id="2139"></path><path d="M322.496446 169.611449s-120.079128 164.798408-137.969111 353.866348C166.640191 712.557089 231.797868 878.453756 231.797868 878.453756s22.203557 20.154609 96.615553 61.493976c65.617413 21.403275 87.20515 22.317072 87.20515 22.317072s-93.051179-174.353543-106.985159-282.930752c-9.776489-57.475541-37.238634-302.764681 85.397422-509.722603H322.496446z" fill="#1C2A55" p-id="2140"></path><path d="M930.994227 695.240358H361.188073v-54.853342h593.312297zM358.253707 716.135653a879.072413 879.072413 0 0 0 18.003498 54.850504h515.259303l33.319524-54.850504H358.253707zM385.81234 792.837817a676.984289 676.984289 0 0 0 24.740619 54.850504h415.737763l48.746229-54.850504H385.81234zM421.4646 868.57794c10.647718 19.033647 22.379505 37.502557 35.430906 54.85618h265.151446l78.359485-54.85618h-378.941837z" fill="#1C2A55" p-id="2141"></path><path d="M100.863857 301.760072l-15.667924 34.278727h200.609589v-34.278727zM66.394992 390.892141h208.629432v-24.488048H74.230372zM58.553935 426.155612h193.94909v-22.529913H64.127527z" fill="#1C2A55" p-id="2142"></path><path d="M475.736177 487.70067h-24.925082v-110.725482h24.925082v110.725482zM650.881488 376.975188l-24.925082 110.725482h-29.167709l-19.615412-79.829505-20.151771 79.829505h-30.756921l-24.916568-110.725482h25.975097l15.914819 85.996214 19.084729-85.996214h28.63135l20.160285 85.996214 14.311418-85.996214h25.455765zM701.109089 487.70067h-25.452927v-110.725482h25.452927v45.315234h51.436537v-45.315234h24.942109v110.725482h-24.942109v-49.45286h-51.436537v49.45286zM879.444175 443.920728l33.935344 43.779942h-29.162033l-31.812612-42.749792h-15.914819v42.749792h-24.925082v-110.725482h54.617799c27.587011 0 41.367746 11.484892 41.367746 34.500082 0.340545 19.561492-9.010262 30.385159-28.106343 32.445458z m-42.956958-51.507484v36.566057h24.400074c14.487367 0.346221 21.374896-5.321021 20.68813-16.987537 0.33487-13.394784-6.55266-19.921903-20.68813-19.57852h-24.400074z" fill="#1A2953" p-id="2143"></path><path d="M458.737288 172.131485l-34.471703-1.101097s-148.889265 196.537235-73.833069 524.076589h29.179061c-3.709106-11.802734-84.259433-277.044993 79.125711-522.975492z" fill="#1C2A55" p-id="2144"></path></svg>